<svg width="200" height="200" viewBox="0 0 200 200" fill="none" xmlns="http://www.w3.org/2000/svg">
<path d="M152.388 129.57C151.191 128.43 150.384 126.874 149.966 124.901C147.628 127.096 145.04 128.764 142.201 129.903C138.416 131.404 134.268 132.154 129.899 132.154C127.06 132.154 124.36 131.849 121.827 131.237C119.239 130.598 116.901 129.542 114.924 128.069C112.92 126.568 111.306 124.623 110.137 122.261C108.996 119.926 108.412 117.092 108.412 113.84C108.412 110.172 109.052 107.115 110.332 104.725C111.612 102.363 113.31 100.39 115.398 98.9166C117.429 97.4437 119.795 96.3321 122.412 95.6095C124.916 94.887 127.505 94.3034 130.093 93.8309C132.793 93.3029 135.465 92.8583 137.97 92.5804C140.336 92.3302 142.451 91.9412 144.205 91.4687C145.819 91.0241 147.127 90.3849 148.018 89.579C148.769 88.912 149.131 87.8837 149.131 86.4664C149.131 84.6044 148.797 83.1038 148.129 82.0199C147.433 80.9083 146.598 80.1024 145.541 79.5188C144.427 78.9074 143.147 78.4905 141.728 78.296C140.225 78.0736 138.694 77.9625 137.219 77.9625C133.294 77.9625 130.038 78.7128 127.449 80.1579C125.111 81.4919 123.859 83.9097 123.664 87.8282L123.581 89.1343H110.638L110.694 87.6892C110.861 83.7429 111.696 80.4081 113.199 77.6568C114.702 74.9055 116.761 72.6545 119.266 70.9315C121.744 69.2362 124.638 68.0134 127.839 67.2909C133.517 65.9847 139.946 65.9291 146.097 66.8184C148.602 67.1797 150.913 67.9023 153 68.9305C142.674 51.0056 123.302 39 101.119 39C67.9145 39 41 65.8736 41 99C41 132.126 67.9145 159 101.091 159C122.996 159 142.173 147.3 152.666 129.792C152.555 129.709 152.443 129.653 152.36 129.542" fill="#FF1A12"/>
</svg>
