<svg width="200" height="200" viewBox="0 0 200 200" fill="none" xmlns="http://www.w3.org/2000/svg">
<path d="M98.843 63.9795C99.4704 62.6241 101.398 62.6258 102.022 63.9823L129.959 124.622C130.302 125.367 131.048 125.844 131.868 125.844H145.188C146.725 125.844 147.742 124.247 147.092 122.854L106.94 36.8922C106.365 35.6598 105.128 34.8722 103.767 34.8722H97.1012C95.7426 34.8722 94.5066 35.658 93.9301 36.8882L53.6432 122.851C52.9902 124.245 54.0071 125.844 55.5459 125.844H68.864C69.6828 125.844 70.427 125.369 70.7709 124.626L98.843 63.9795Z" fill="url(#paint0_linear_1_117)"/>
<path d="M88.0943 110.16C87.1058 110.16 86.214 110.753 85.8326 111.665L81.3238 122.447C80.6484 124.062 81.8348 125.844 83.5855 125.844H117.144C118.895 125.844 120.081 124.062 119.406 122.447L114.897 111.665C114.515 110.753 113.624 110.16 112.635 110.16H88.0943Z" fill="url(#paint1_linear_1_117)"/>
<path d="M74.9388 148.38H72.6445C72.4506 148.38 72.3213 148.506 72.3213 148.693V164.311C72.3213 164.499 72.4506 164.624 72.6445 164.624H74.9388C75.1327 164.624 75.2619 164.499 75.2619 164.311V148.693C75.2619 148.537 75.1327 148.38 74.9388 148.38ZM104.151 148.38H101.856C101.663 148.38 101.533 148.506 101.533 148.693V164.311C101.533 164.499 101.663 164.624 101.856 164.624H104.151C104.345 164.624 104.474 164.499 104.474 164.311V148.693C104.474 148.537 104.345 148.38 104.151 148.38ZM159.343 148.412H157.017C156.855 148.412 156.694 148.537 156.694 148.725V158.897C156.694 159.085 156.435 159.178 156.273 159.022L149.1 148.693C148.97 148.537 148.777 148.412 148.583 148.412H145.674C145.513 148.412 145.351 148.568 145.351 148.693V164.343C145.351 164.499 145.513 164.656 145.674 164.656H147.969C148.195 164.656 148.292 164.499 148.292 164.343V153.451C148.292 153.232 148.583 153.138 148.712 153.326L156.435 164.437C156.532 164.593 156.726 164.687 156.887 164.687H159.246C159.44 164.687 159.602 164.593 159.602 164.343V148.725C159.666 148.568 159.505 148.412 159.343 148.412ZM121.503 161.776H113.231C113.069 161.776 112.908 161.651 112.908 161.463V148.693C112.908 148.537 112.779 148.38 112.585 148.38H110.258C110.097 148.38 109.935 148.506 109.935 148.693V164.311C109.935 164.468 110.064 164.624 110.258 164.624H121.471C121.633 164.624 121.794 164.499 121.794 164.311V162.058C121.827 161.933 121.697 161.776 121.503 161.776ZM46.3408 164.249L45.4683 162.434C45.4037 162.308 45.2744 162.214 45.1452 162.214H40.3627C40.2334 162.214 40.1041 162.308 40.0395 162.434L39.167 164.249C39.1024 164.405 39.1994 164.656 39.4256 164.656H46.1146C46.3085 164.656 46.4377 164.437 46.3408 164.249Z" fill="#005EB8"/>
<path d="M43.8848 148.693C43.7878 148.506 43.594 148.38 43.4001 148.38H42.1075C41.8813 148.38 41.6874 148.506 41.6228 148.693L34.029 164.249C33.932 164.437 34.0936 164.656 34.2875 164.656H36.8726C37.0019 164.656 37.1311 164.562 37.1958 164.468L42.4953 153.451C42.5922 153.263 42.8507 153.263 42.9477 153.451L48.2795 164.437C48.3441 164.562 48.4734 164.624 48.6026 164.624H51.1878C51.414 164.624 51.5432 164.405 51.4463 164.218L43.8848 148.693ZM60.7204 164.343C60.6235 164.531 60.4296 164.656 60.2357 164.656H58.9432C58.717 164.656 58.5231 164.531 58.4585 164.343L50.8646 148.787C50.7677 148.599 50.9293 148.38 51.1232 148.38H53.7083C53.8375 148.38 53.9668 148.474 54.0314 148.568L59.3309 159.554C59.4279 159.742 59.6864 159.742 59.7833 159.554L65.1152 148.599C65.1798 148.474 65.3091 148.412 65.4383 148.412H68.0234C68.2496 148.412 68.3789 148.631 68.282 148.819L60.7204 164.343ZM132.458 148.036C127.611 148.036 123.701 151.855 123.701 156.518C123.701 161.182 127.643 165 132.458 165C137.273 165 141.215 161.182 141.215 156.518C141.215 151.855 137.305 148.036 132.458 148.036ZM132.458 162.152C129.259 162.152 126.641 159.617 126.641 156.518C126.641 153.419 129.259 150.884 132.458 150.884C135.657 150.884 138.274 153.419 138.274 156.518C138.307 159.648 135.689 162.152 132.458 162.152ZM97.0738 155.861C97.0738 155.673 96.9123 155.548 96.7184 155.548H90.0617C89.8678 155.548 89.7385 155.704 89.7385 155.861V157.707C89.7385 157.895 89.9001 158.02 90.0617 158.02H93.4224C93.8101 158.02 93.8748 158.239 93.7778 158.521C92.9053 160.743 90.611 162.308 87.9613 162.121C85.1822 161.933 82.8879 159.836 82.5648 157.144C82.177 153.732 84.9237 150.853 88.349 150.853C89.9001 150.853 91.2896 151.416 92.3237 152.387C92.4529 152.512 92.6145 152.574 92.8084 152.574H95.6843C95.8782 152.574 96.0075 152.355 95.9105 152.199C94.2625 149.476 91.0634 147.723 87.4766 148.036C83.405 148.412 80.0766 151.573 79.6242 155.516C79.0426 160.649 83.1788 165 88.349 165C93.0669 165 96.9123 161.401 97.1062 156.894V156.487C97.1062 156.299 97.1062 156.08 97.0738 155.861Z" fill="#005EB8"/>
<path d="M162.801 150.383V148.631H162.155V148.412H163.673V148.631H163.027V150.383H162.801ZM165.741 150.383V148.756L165.063 150.383H164.966L164.287 148.756V150.383H164.029V148.412H164.384L164.998 149.883L165.645 148.412H166V150.383H165.741Z" fill="#005EB8"/>
<defs>
<linearGradient id="paint0_linear_1_117" x1="54.5971" y1="125.844" x2="147.268" y2="125.844" gradientUnits="userSpaceOnUse">
<stop offset="0.09375" stop-color="#005EB8"/>
<stop offset="1" stop-color="#B5BE12"/>
</linearGradient>
<linearGradient id="paint1_linear_1_117" x1="54.5971" y1="125.844" x2="147.268" y2="125.844" gradientUnits="userSpaceOnUse">
<stop offset="0.09375" stop-color="#005EB8"/>
<stop offset="1" stop-color="#B5BE12"/>
</linearGradient>
</defs>
</svg>
