<svg width="200" height="200" viewBox="0 0 200 200" fill="none" xmlns="http://www.w3.org/2000/svg">
<path d="M64.4859 132.418C64.9879 131.712 65.6759 131.126 66.5498 130.661C67.4422 130.178 68.4555 129.936 69.5896 129.936C70.9097 129.936 72.0996 130.262 73.1593 130.912C74.2377 131.563 75.0836 132.493 75.6972 133.701C76.3293 134.891 76.6454 136.276 76.6454 137.857C76.6454 139.437 76.3293 140.841 75.6972 142.068C75.0836 143.276 74.2377 144.215 73.1593 144.884C72.0996 145.554 70.9097 145.888 69.5896 145.888C68.4555 145.888 67.4515 145.656 66.5776 145.191C65.7224 144.726 65.0251 144.141 64.4859 143.434V153H60.5815V130.187H64.4859V132.418ZM72.6573 137.857C72.6573 136.927 72.4621 136.127 72.0717 135.458C71.6998 134.77 71.1978 134.25 70.5657 133.896C69.9522 133.543 69.2828 133.366 68.5577 133.366C67.8512 133.366 67.1819 133.552 66.5498 133.924C65.9362 134.277 65.4342 134.798 65.0438 135.486C64.6719 136.174 64.4859 136.983 64.4859 137.912C64.4859 138.842 64.6719 139.651 65.0438 140.339C65.4342 141.027 65.9362 141.556 66.5498 141.928C67.1819 142.282 67.8512 142.458 68.5577 142.458C69.2828 142.458 69.9522 142.272 70.5657 141.9C71.1978 141.529 71.6998 140.999 72.0717 140.311C72.4621 139.623 72.6573 138.805 72.6573 137.857Z" fill="#0F3997"/>
<path d="M83.387 132.586C83.889 131.767 84.5397 131.126 85.3392 130.661C86.1572 130.196 87.0868 129.964 88.128 129.964V134.064H87.0961C85.869 134.064 84.9394 134.352 84.3073 134.928C83.6937 135.505 83.387 136.509 83.387 137.94V145.637H79.4826V130.187H83.387V132.586Z" fill="#0F3997"/>
<path d="M94.6622 130.187V145.638H90.7578V130.187H94.6622Z" fill="#0F3997"/>
<path d="M102.424 125V145.638H98.5198V125H102.424Z" fill="#0F3997"/>
<path d="M118.218 141.928H110.465L109.182 145.638H105.082L112.082 126.144H116.628L123.628 145.638H119.501L118.218 141.928ZM117.158 138.805L114.341 130.662L111.525 138.805H117.158Z" fill="#0F3997"/>
<path d="M130.149 130.187V145.638H126.245V130.187H130.149Z" fill="#0F3997"/>
<path d="M137.911 132.586C138.413 131.767 139.064 131.126 139.863 130.661C140.682 130.196 141.611 129.964 142.652 129.964V134.064H141.62C140.393 134.064 139.464 134.352 138.832 134.928C138.218 135.505 137.911 136.509 137.911 137.94V145.637H134.007V130.187H137.911V132.586Z" fill="#0F3997"/>
<path d="M159.645 137.578C159.645 138.135 159.608 138.637 159.533 139.084H148.239C148.331 140.199 148.722 141.073 149.41 141.705C150.098 142.337 150.944 142.653 151.948 142.653C153.398 142.653 154.43 142.031 155.043 140.785H159.254C158.808 142.272 157.953 143.499 156.689 144.466C155.424 145.414 153.872 145.888 152.031 145.888C150.544 145.888 149.205 145.563 148.015 144.912C146.844 144.243 145.924 143.304 145.254 142.096C144.604 140.887 144.278 139.493 144.278 137.912C144.278 136.313 144.604 134.91 145.254 133.701C145.905 132.493 146.816 131.563 147.988 130.912C149.159 130.262 150.507 129.936 152.031 129.936C153.5 129.936 154.811 130.252 155.964 130.884C157.135 131.517 158.037 132.418 158.669 133.59C159.32 134.742 159.645 136.072 159.645 137.578ZM155.601 136.462C155.582 135.458 155.22 134.659 154.513 134.064C153.807 133.45 152.942 133.143 151.92 133.143C150.953 133.143 150.135 133.441 149.466 134.036C148.815 134.612 148.415 135.421 148.266 136.462H155.601Z" fill="#0F3997"/>
<path d="M130.106 125.496H126.388V128.285H130.106V125.496Z" fill="#0F3997"/>
<path d="M94.4711 125.496H90.7527V128.285H94.4711V125.496Z" fill="#0F3997"/>
<path d="M53.1355 141.928H45.3825L44.0996 145.638H40L47.0001 126.144H51.5459L58.5459 145.638H54.4184L53.1355 141.928ZM52.0758 138.805L49.259 130.662L46.4423 138.805H52.0758Z" fill="#0F3997"/>
<path fill-rule="evenodd" clip-rule="evenodd" d="M107.043 72.8495C106.357 73.9137 99.0932 72.6415 90.3417 69.7476C81.3844 66.7858 71.5758 66.2768 65.8956 68.4784C62.6953 69.7192 62.6953 69.7192 67.7244 69.7946C70.4904 69.8361 77.074 71.1596 82.3545 72.7345C89.6513 74.9112 93.3073 76.6627 99.5425 76.7622C104.595 77.1057 106.764 75.2515 107.772 75.8418C108.79 76.4379 107.957 71.4299 107.043 72.8495Z" fill="#0F3997"/>
<path fill-rule="evenodd" clip-rule="evenodd" d="M110.553 83.2855C109.659 84.669 100.184 83.0151 88.7689 79.2532C77.0855 75.4027 64.2917 74.741 56.8827 77.6031C52.7084 79.2161 52.7084 79.2161 59.2681 79.3142C62.8759 79.368 71.4632 81.0887 78.3509 83.1359C87.8685 85.9657 92.6371 88.2428 100.77 88.372C107.36 88.8187 110.189 86.4082 111.504 87.1754C112.832 87.9505 111.746 81.4401 110.553 83.2855Z" fill="#0F3997"/>
<path d="M84.9937 61.7925L96.6163 65.1824L100.491 53.5597L116.956 101.503H131L107.27 40H93.2264L84.9937 61.7925Z" fill="#0F3997"/>
<path d="M86.4465 92.3019L74.8239 89.3962L70.4654 101.503H83.5409L86.4465 92.3019Z" fill="#0F3997"/>
</svg>
